<svg width="200" height="200" viewBox="0 0 200 200" fill="none" xmlns="http://www.w3.org/2000/svg">
<path d="M86.1617 135.713V100.167H93.6771V115.84H94.1458L106.938 100.167H115.946L102.755 116.083L116.102 135.713H107.111L97.3741 121.099L93.6771 125.611V135.713H86.1617ZM118.506 106.363V100.167H147.699V106.363H136.817V135.713H129.388V106.363H118.506ZM171.79 110.39C171.652 108.99 171.056 107.902 170.003 107.127C168.95 106.351 167.521 105.964 165.716 105.964C164.489 105.964 163.453 106.137 162.609 106.484C161.764 106.82 161.116 107.289 160.665 107.89C160.225 108.492 160.005 109.175 160.005 109.938C159.982 110.575 160.115 111.13 160.404 111.605C160.705 112.079 161.116 112.49 161.637 112.837C162.157 113.172 162.759 113.468 163.442 113.722C164.125 113.965 164.854 114.173 165.629 114.347L168.822 115.111C170.373 115.458 171.796 115.921 173.092 116.499C174.388 117.078 175.51 117.789 176.459 118.634C177.408 119.479 178.143 120.474 178.664 121.619C179.196 122.765 179.468 124.078 179.479 125.559C179.468 127.735 178.912 129.621 177.813 131.218C176.725 132.803 175.152 134.035 173.092 134.914C171.044 135.782 168.574 136.216 165.681 136.216C162.811 136.216 160.312 135.777 158.183 134.897C156.065 134.018 154.411 132.716 153.219 130.992C152.039 129.256 151.42 127.11 151.362 124.553H158.634C158.715 125.744 159.056 126.74 159.658 127.538C160.271 128.325 161.087 128.921 162.105 129.326C163.135 129.719 164.298 129.916 165.594 129.916C166.867 129.916 167.972 129.731 168.909 129.36C169.858 128.99 170.593 128.475 171.113 127.816C171.634 127.156 171.895 126.398 171.895 125.542C171.895 124.744 171.657 124.072 171.183 123.529C170.72 122.985 170.037 122.522 169.135 122.14C168.244 121.758 167.15 121.411 165.854 121.099L161.984 120.127C158.987 119.398 156.621 118.258 154.885 116.707C153.149 115.157 152.287 113.068 152.299 110.442C152.287 108.29 152.86 106.409 154.017 104.801C155.186 103.192 156.789 101.937 158.825 101.034C160.862 100.132 163.176 99.6807 165.768 99.6807C168.406 99.6807 170.708 100.132 172.676 101.034C174.654 101.937 176.193 103.192 177.292 104.801C178.392 106.409 178.959 108.272 178.993 110.39H171.79Z" fill="#1A46B3"/>
<path d="M38.8561 106.966V153.614L48.5913 151.18L51.0251 96.8253H30.7434L100.512 35.5746L146.755 65.5915L99.2955 23L8.43359 106.966H38.8561Z" fill="#1A46B3"/>
<path d="M85.9102 75.7324H100.513V89.524H85.9102V75.7324Z" fill="#353437"/>
<path d="M85.9102 70.8648C85.9102 63.2479 92.0848 57.0732 99.7017 57.0732H100.513V70.8648H85.9102V70.8648Z" fill="#1A46B3"/>
<path d="M104.568 75.7324H119.171V89.524H104.568V75.7324Z" fill="#1A46B3"/>
<path d="M106.192 150.775C54.2704 149.801 17.7634 163.89 6 171.056C35.2056 159.049 84.9633 156.048 106.192 156.048C148.377 155.399 180.558 163.89 191.375 168.217C162.169 155.885 122.417 151.451 106.192 150.775Z" fill="#1A46B3"/>
<path d="M108.221 157.718C56.2997 156.745 19.7927 170.834 8.0293 178C37.2349 165.993 86.9926 162.992 108.221 162.992C150.407 162.343 182.587 170.834 193.404 175.161C164.198 162.829 124.446 158.394 108.221 157.718Z" fill="#353437"/>
<path d="M105.381 57.0732H106.192C113.809 57.0732 119.984 63.2479 119.984 70.8648V70.8648H105.381V57.0732Z" fill="#353437"/>
</svg>
